<mxfile>
  <diagram name="Inventory-Service ERD">
    <mxGraphModel>
      <root>
        <mxCell id="0" />
        <mxCell id="1" parent="0" />
        <mxCell id="2" value="Product" style="shape=rectangle" vertex="1" parent="1">
          <mxGeometry x="20" y="20" width="120" height="60" as="geometry" />
        </mxCell>
        <mxCell id="3" value="Warehouse" style="shape=rectangle" vertex="1" parent="1">
          <mxGeometry x="200" y="20" width="120" height="60" as="geometry" />
        </mxCell>
        <mxCell id="4" edge="1" parent="1" source="2" target="3">
          <mxGeometry relative="1" as="geometry" />
        </mxCell>
      </root>
    </mxGraphModel>
  </diagram>
</mxfile>